# xmcd CD database file
#
# Track frame offsets:
#	150
#	15317
#	29844
#	46266
#	59930
#	73518
#	86736
#	100578
#	111972
#	127159
#	138306
#	153071
#	168090
#	181873
#	194060
#	205862
#	218377
#	229671
#
# Disc length: 3237 seconds
#
# Revision: 0
# Processed by: cddbd v1.5.2PL0 Copyright (c) Steve Scherf et al.
# Submitted via: CDex 1.70beta2
#
DISCID=f80ca312
DTITLE=Odoardo - Firenze
DYEAR=2007
DGENRE=Musica Italiana
TTITLE0=Firenze (O.Spadaro)
TTITLE1=Sulla Carrozzella (Filippini-Morbelli)
TTITLE2=Porta Un Bacione A Firenze (Spadaro-Mascheroni)
TTITLE3=Il Valzer Della Povera Gente (Spadaro)
TTITLE4=Qualche Filo Bianco (Spadaro-Mascheroni)
TTITLE5=Donne C'è L'ortolano (Spadaro)
TTITLE6=Ninna Nanna Delle 12 Mamme (Spadaro)
TTITLE7=Mi Ami Memy A Miami (Spadaro-Petralia)
TTITLE8=La Cavalcata Dei Cinque (Spadaro)
TTITLE9=Quando L'estate (Spadaro)
TTITLE10=Avventura Esotica (Spadaro-Giuliani)
TTITLE11=Rumba Fiorentina (Spadaro-Cardoni)
TTITLE12=Se Fossi Un Indovino (Benatzky-Ramo)
TTITLE13=In Bicicletta (Natili-Ruscohi-Lao-Schor)
TTITLE14=Canzone Cinese (Spadaro-Celani)
TTITLE15=Vieni A Dixieland (Spadaro)
TTITLE16=Sposi Promessi (Spadaro-Petralia)
TTITLE17=Fra Tanti Gusti (Spadaro)
EXTD=YEAR: 2007
EXTT0=
EXTT1=
EXTT2=
EXTT3=
EXTT4=
EXTT5=
EXTT6=
EXTT7=
EXTT8=
EXTT9=
EXTT10=
EXTT11=
EXTT12=
EXTT13=
EXTT14=
EXTT15=
EXTT16=
EXTT17=
PLAYORDER=
